<svg width="35" height="35" viewBox="0 0 35 35" fill="none" xmlns="http://www.w3.org/2000/svg">
<g clip-path="url(#clip0)">
<path d="M31.7187 4.375H3.28127C1.47187 4.375 0 5.84687 0 7.65627V27.3438C0 29.1532 1.47187 30.625 3.28127 30.625H31.7187C33.5281 30.625 35 29.1532 35 27.3438V7.65627C35 5.84687 33.5281 4.375 31.7187 4.375ZM31.7187 6.56249C31.8673 6.56249 32.0087 6.59332 32.1379 6.64717L17.5 19.334L2.86198 6.64717C2.99122 6.5934 3.1326 6.56249 3.2812 6.56249H31.7187ZM31.7187 28.4375H3.28127C2.6778 28.4375 2.18749 27.9472 2.18749 27.3437V8.95828L16.7833 21.608C16.9895 21.7863 17.2447 21.875 17.5 21.875C17.7553 21.875 18.0105 21.7864 18.2167 21.608L32.8125 8.95828V27.3438C32.8124 27.9472 32.3222 28.4375 31.7187 28.4375Z" fill="#E3B873"/>
</g>
<defs>
<clipPath id="clip0">
<rect width="35" height="35" fill="white"/>
</clipPath>
</defs>
</svg>