<svg width="35" height="35" viewBox="0 0 35 35" fill="none" xmlns="http://www.w3.org/2000/svg">
<g clip-path="url(#clip0)">
<path d="M32.1916 22.9735C30.0488 22.9735 27.9448 22.6383 25.951 21.9795C24.9569 21.6405 23.8252 21.9035 23.1767 22.5643L19.2413 25.5351C14.6773 23.0989 11.866 20.2885 9.46303 15.7588L12.3464 11.926C13.0956 11.1779 13.3643 10.085 13.0423 9.05962C12.3806 7.05533 12.0445 4.95232 12.0445 2.80857C12.0446 1.25991 10.7846 0 9.23608 0H2.80839C1.25991 0 0 1.25991 0 2.80839C0 20.5591 14.441 35 32.1916 35C33.7402 35 35.0001 33.7401 35.0001 32.1915V25.7819C35 24.2334 33.7401 22.9735 32.1916 22.9735ZM33.0556 32.1916C33.0556 32.6682 32.6682 33.0556 32.1916 33.0556C15.5128 33.0556 1.94451 19.4872 1.94451 2.80848C1.94451 2.33188 2.33188 1.94451 2.80848 1.94451H9.23617C9.71277 1.94451 10.1001 2.33188 10.1001 2.80848C10.1001 5.16022 10.4695 7.46831 11.192 9.6549C11.2926 9.97773 11.2109 10.3119 10.8844 10.6518L7.54232 15.078C7.31828 15.3751 7.2831 15.773 7.45117 16.1043C10.1789 21.4658 13.4934 24.7803 18.8928 27.5469C19.2213 27.7187 19.6239 27.6827 19.922 27.4577L24.4499 24.0274C24.6786 23.7986 25.0214 23.717 25.331 23.8223C27.5327 24.5496 29.8408 24.918 32.1916 24.918C32.6682 24.918 33.0556 25.3054 33.0556 25.782V32.1916Z" fill="#E3B873"/>
</g>
<defs>
<clipPath id="clip0">
<rect width="35" height="35" fill="white"/>
</clipPath>
</defs>
</svg>
