<svg width="35" height="35" viewBox="0 0 35 35" fill="none" xmlns="http://www.w3.org/2000/svg">
<path d="M29.1177 6.08542C26.4458 2.21833 22.2111 0 17.5004 0C12.7897 0 8.55504 2.21833 5.88307 6.08542C3.22424 9.93296 2.6103 14.804 4.23753 19.1076C4.67277 20.2828 5.36464 21.4246 6.28899 22.4946L16.5687 34.5692C16.8012 34.8425 17.1419 35 17.5004 35C17.859 35 18.1996 34.8426 18.4321 34.5692L28.709 22.4979C29.6374 21.4218 30.3284 20.2812 30.76 19.1154C32.3905 14.804 31.7766 9.93296 29.1177 6.08542ZM28.4683 18.2583C28.1355 19.1578 27.5921 20.0471 26.8542 20.9025C26.8521 20.9045 26.8501 20.9066 26.8484 20.909L17.5004 31.8888L8.14666 20.9021C7.40913 20.0475 6.86574 19.1583 6.52962 18.2502C5.1839 14.691 5.69461 10.6636 7.89619 7.47729C10.1047 4.2808 13.6055 2.44754 17.5004 2.44754C21.3953 2.44754 24.8957 4.28073 27.1042 7.47729C29.3062 10.6636 29.8173 14.691 28.4683 18.2583Z" fill="#E3B873"/>
<path d="M17.5004 7.26099C13.7218 7.26099 10.6472 10.3351 10.6472 14.1141C10.6472 17.8932 13.7214 20.9673 17.5004 20.9673C21.2795 20.9673 24.3536 17.8932 24.3536 14.1141C24.3536 10.3355 21.279 7.26099 17.5004 7.26099ZM17.5004 18.5197C15.0712 18.5197 13.0948 16.5433 13.0948 14.1141C13.0948 11.6849 15.0712 9.70846 17.5004 9.70846C19.9296 9.70846 21.906 11.6849 21.906 14.1141C21.906 16.5433 19.9296 18.5197 17.5004 18.5197Z" fill="#E3B873"/>
</svg>
