<svg width="95" height="95" viewBox="0 0 95 95" fill="none" xmlns="http://www.w3.org/2000/svg">
<g clip-path="url(#clip0)">
<path d="M33.9822 1.97987C23.2938 5.15689 14.0651 11.9955 7.91459 21.2965C7.06991 22.8205 6.54245 24.4996 6.36406 26.2329V9.55673H0.0353394V34.8716H25.3502V28.5429H11.0473C18.1331 14.9114 32.139 6.27924 47.5007 6.07593C65.7185 6.28775 81.6869 18.309 86.9286 35.7576L93.0042 33.9539C85.5351 8.82596 59.1102 -5.48921 33.9822 1.97987Z" fill="white"/>
<path d="M69.6505 60.1865V66.5152H83.9534C76.8676 80.1467 62.8618 88.7789 47.5 88.9822C29.2822 88.7704 13.3139 76.7492 8.07209 59.3005L1.99652 61.1042C9.49763 86.2225 35.941 100.504 61.0593 93.0029C72.061 89.7175 81.4989 82.5554 87.6241 72.8439C88.2803 71.6055 88.6278 70.2268 88.6367 68.8252V85.5014H94.9654V60.1865H69.6505Z" fill="#FA820F"/>
</g>
<defs>
<clipPath id="clip0">
<rect width="95" height="95" fill="white"/>
</clipPath>
</defs>
</svg>
