<svg width="45" height="45" viewBox="0 0 45 45" fill="none" xmlns="http://www.w3.org/2000/svg">
<g clip-path="url(#clip0)">
<path d="M1.97675 2.18323H0.660937C0.29584 2.18323 0 2.47907 0 2.84416V4.07797C0 4.44307 0.29584 4.73891 0.660937 4.73891C1.02604 4.73891 1.32187 4.44298 1.32187 4.07788V3.5051H1.97675C2.34185 3.5051 2.63769 3.20926 2.63769 2.84416C2.63769 2.47907 2.34185 2.18323 1.97675 2.18323Z" fill="#15222E"/>
<path d="M44.3391 2.18323H43.0233C42.6582 2.18323 42.3623 2.47907 42.3623 2.84416C42.3623 3.20926 42.6582 3.5051 43.0233 3.5051H43.6781V4.07797C43.6781 4.44307 43.974 4.73891 44.3391 4.73891C44.7042 4.73891 45 4.44298 45 4.07788V2.84416C45 2.47907 44.7042 2.18323 44.3391 2.18323Z" fill="#15222E"/>
<path d="M1.97675 40.7977H1.32187V40.2249C1.32187 39.8598 1.02604 39.564 0.660937 39.564C0.29584 39.564 0 39.8598 0 40.2249V41.4586C0 41.8237 0.29584 42.1196 0.660937 42.1196H1.97675C2.34185 42.1196 2.63769 41.8237 2.63769 41.4586C2.63769 41.0935 2.34185 40.7977 1.97675 40.7977Z" fill="#15222E"/>
<path d="M44.3391 39.564C43.974 39.564 43.6781 39.8598 43.6781 40.2249V40.7977H43.0233C42.6582 40.7977 42.3623 41.0935 42.3623 41.4586C42.3623 41.8237 42.6582 42.1196 43.0233 42.1196H44.3391C44.7042 42.1196 45 41.8237 45 41.4586V40.2249C45 39.8598 44.7042 39.564 44.3391 39.564Z" fill="#15222E"/>
<path d="M22.5077 11.5199C22.1426 11.5199 21.8468 11.8157 21.8468 12.1808V14.8246C21.8468 15.1897 22.1426 15.4855 22.5077 15.4855C22.8728 15.4855 23.1687 15.1897 23.1687 14.8246V12.1808C23.1687 11.8157 22.8728 11.5199 22.5077 11.5199Z" fill="#15222E"/>
<path d="M39.9602 30.2976V22.1035C39.9602 21.7384 39.6644 21.4425 39.2993 21.4425C38.9342 21.4425 38.6384 21.7384 38.6384 22.1035V30.2976C38.1841 30.413 37.7761 30.6448 37.4471 30.9588L35.5457 30.0245C35.218 29.8636 34.822 29.9987 34.661 30.3262C34.5001 30.6539 34.6351 31.0499 34.9628 31.211L36.7408 32.0847C36.6585 32.3421 36.6137 32.6161 36.6137 32.9006C36.6137 33.0291 36.6234 33.1553 36.6409 33.279L24.6089 38.4618C24.2486 38.0093 23.746 37.675 23.1689 37.5284V25.4109C23.2414 25.4367 23.316 25.4493 23.3898 25.4493C23.6338 25.4493 23.8686 25.3135 23.9835 25.0796C24.1444 24.752 24.0094 24.3559 23.6817 24.1949L23.1688 23.9428V22.1876C24.3309 21.8922 25.1931 20.8373 25.1931 19.5846C25.1931 19.435 25.1803 19.2885 25.1566 19.1455L37.1821 13.8759C37.5435 14.3388 38.0525 14.6808 38.6382 14.8296V17.3446C38.6382 17.7097 38.934 18.0056 39.2991 18.0056C39.6642 18.0056 39.9601 17.7097 39.9601 17.3446V14.8296C41.1222 14.5344 41.9846 13.4794 41.9846 12.2267C41.9846 10.7459 40.7799 9.54117 39.2991 9.54117C38.4398 9.54117 37.6739 9.9474 37.1821 10.5774L25.1568 5.30791C25.1805 5.16492 25.1933 5.0184 25.1933 4.86881C25.1933 3.38803 23.9886 2.18323 22.5077 2.18323C21.0269 2.18323 19.8222 3.38794 19.8222 4.86881C19.8222 5.01849 19.8351 5.16509 19.8588 5.30818L7.82188 10.5828C7.33013 9.94977 6.5624 9.54125 5.70063 9.54125C4.21985 9.54125 3.01514 10.746 3.01514 12.2268C3.01514 13.4853 3.88561 14.5439 5.05596 14.8335V30.2938C3.88561 30.5833 3.01514 31.6421 3.01514 32.9006C3.01514 34.3813 4.21985 35.5861 5.70063 35.5861C6.58438 35.5861 7.36959 35.1569 7.85923 34.496L10.9922 35.8454C11.0773 35.8821 11.166 35.8995 11.2533 35.8995C11.5093 35.8995 11.753 35.7498 11.8607 35.4998C12.005 35.1646 11.8503 34.7757 11.5151 34.6313L8.35985 33.2723C8.37673 33.1507 8.38613 33.0268 8.38613 32.9006C8.38613 32.6187 8.34228 32.3469 8.26133 32.0915L10.0533 31.211C10.381 31.0499 10.516 30.6539 10.3551 30.3262C10.1941 29.9987 9.79801 29.8637 9.47035 30.0245L7.55829 30.9641C7.23222 30.6512 6.8281 30.4191 6.37774 30.3017V14.8256C6.95888 14.6741 7.46346 14.3319 7.82179 13.8707L19.8587 19.1452C19.835 19.2883 19.8221 19.4349 19.8221 19.5846C19.8221 20.8375 20.6847 21.8926 21.847 22.1877V23.9429L21.3342 24.1949C21.0065 24.3559 20.8715 24.752 21.0325 25.0796C21.1474 25.3134 21.3821 25.4493 21.6262 25.4493C21.6999 25.4493 21.7745 25.4368 21.8469 25.411V37.5282C21.2698 37.6747 20.7669 38.0089 20.4066 38.4615L15.8045 36.4792C15.4694 36.3347 15.0804 36.4895 14.9361 36.8247C14.7917 37.1599 14.9463 37.5487 15.2816 37.6931L19.8631 39.6666C19.8366 39.8176 19.822 39.9727 19.822 40.1312C19.822 41.612 21.0267 42.8168 22.5075 42.8168C23.9884 42.8168 25.1931 41.612 25.1931 40.1312C25.1931 39.9729 25.1785 39.8179 25.1521 39.667L37.1442 34.5014C37.6341 35.1593 38.4177 35.5862 39.2991 35.5862C40.7798 35.5862 41.9846 34.3815 41.9846 32.9007C41.9848 31.6479 41.1224 30.5929 39.9602 30.2976ZM39.2993 10.8631C40.0512 10.8631 40.6629 11.4748 40.6629 12.2268C40.6629 12.9787 40.0512 13.5904 39.2993 13.5904C38.5474 13.5904 37.9357 12.9787 37.9357 12.2268C37.9357 11.4748 38.5474 10.8631 39.2993 10.8631ZM7.06426 32.9006C7.06426 33.6526 6.45254 34.2643 5.70063 34.2643C4.94873 34.2643 4.33701 33.6526 4.33701 32.9006C4.33701 32.1487 4.94873 31.5369 5.70063 31.5369C6.45254 31.5369 7.06426 32.1487 7.06426 32.9006ZM6.96081 12.7465C6.95747 12.7535 6.95352 12.7601 6.95044 12.7673C6.94824 12.7723 6.94675 12.7775 6.94464 12.7826C6.73133 13.2579 6.25452 13.5904 5.70072 13.5904C4.94882 13.5904 4.3371 12.9787 4.3371 12.2268C4.3371 11.4748 4.94882 10.8631 5.70072 10.8631C6.45263 10.8631 7.06435 11.4748 7.06435 12.2268C7.06426 12.4108 7.02717 12.5861 6.96081 12.7465ZM22.5077 3.5051C23.2597 3.5051 23.8714 4.11682 23.8714 4.86881C23.8714 5.62072 23.2597 6.23244 22.5077 6.23244C21.7558 6.23244 21.1441 5.62072 21.1441 4.86881C21.1441 4.11682 21.7558 3.5051 22.5077 3.5051ZM20.3908 17.9352L8.3508 12.6594C8.37374 12.5185 8.38613 12.3741 8.38613 12.2268C8.38613 12.0794 8.37374 11.935 8.3508 11.7942L20.3908 6.51826C20.7522 6.981 21.2611 7.32307 21.8468 7.47187V9.53721C21.8468 9.90231 22.1426 10.1981 22.5077 10.1981C22.8728 10.1981 23.1686 9.90231 23.1686 9.53721V7.47178C23.7544 7.32298 24.2635 6.98082 24.6249 6.5179L36.6504 11.7876C36.6267 11.9306 36.6139 12.0772 36.6139 12.2268C36.6139 12.3763 36.6267 12.5229 36.6504 12.6659L24.625 17.9355C24.2064 17.3994 23.5895 17.0258 22.8853 16.9263C22.7782 16.8516 22.6482 16.8074 22.5078 16.8074C22.3673 16.8074 22.2373 16.8516 22.1303 16.9263C21.4261 17.0258 20.8093 17.3993 20.3908 17.9352ZM21.1441 19.5847C21.1441 18.8328 21.7558 18.2211 22.5077 18.2211C23.2597 18.2211 23.8714 18.8328 23.8714 19.5847C23.8714 20.3367 23.2597 20.9484 22.5077 20.9484C21.7558 20.9484 21.1441 20.3367 21.1441 19.5847ZM22.5077 41.4949C21.7558 41.4949 21.1441 40.8832 21.1441 40.1312C21.1441 39.3793 21.7558 38.7676 22.5077 38.7676C23.2597 38.7676 23.8714 39.3793 23.8714 40.1312C23.8714 40.8832 23.2597 41.4949 22.5077 41.4949ZM39.2993 34.2643C38.7487 34.2643 38.2745 33.9356 38.0593 33.4647C38.0524 33.4423 38.0444 33.4202 38.0349 33.3981C38.0302 33.3873 38.0247 33.3773 38.0195 33.3669C37.9663 33.2211 37.9357 33.0646 37.9357 32.9006C37.9357 32.6583 37.9998 32.431 38.1111 32.2337C38.154 32.1876 38.1911 32.1347 38.2203 32.0752C38.2222 32.0711 38.2236 32.067 38.2255 32.063C38.4753 31.7435 38.8632 31.5369 39.2993 31.5369H39.2994C40.0513 31.5369 40.6629 32.1487 40.6629 32.9006C40.6629 33.6526 40.0512 34.2643 39.2993 34.2643Z" fill="#15222E"/>
<path d="M19.8462 25.6626C19.6853 25.335 19.2892 25.2 18.9615 25.3609L16.5887 26.5268C16.2611 26.6878 16.1261 27.0839 16.287 27.4115C16.4019 27.6453 16.6367 27.7811 16.8807 27.7811C16.9785 27.7811 17.0779 27.7592 17.1717 27.7132L19.5445 26.5473C19.8721 26.3863 20.0071 25.9902 19.8462 25.6626Z" fill="#15222E"/>
<path d="M15.1007 27.9943C14.9396 27.6668 14.5434 27.5317 14.216 27.6926L11.8431 28.8586C11.5154 29.0196 11.3804 29.4156 11.5414 29.7433C11.6562 29.9771 11.8909 30.1129 12.1351 30.1129C12.2329 30.1129 12.3323 30.091 12.4261 30.045L14.7989 28.879C15.1266 28.718 15.2616 28.3219 15.1007 27.9943Z" fill="#15222E"/>
<path d="M28.4275 26.5268L26.0547 25.3608C25.727 25.1999 25.3309 25.335 25.17 25.6626C25.0091 25.9902 25.1441 26.3863 25.4717 26.5473L27.8445 27.7132C27.9383 27.7593 28.0376 27.7811 28.1355 27.7811C28.3796 27.7811 28.6144 27.6453 28.7292 27.4115C28.8902 27.0838 28.7552 26.6878 28.4275 26.5268Z" fill="#15222E"/>
<path d="M33.1731 28.8586L30.8003 27.6928C30.4726 27.5319 30.0765 27.6669 29.9156 27.9945C29.7547 28.3221 29.8897 28.7182 30.2173 28.8792L32.5901 30.0451C32.6839 30.0911 32.7832 30.1129 32.8811 30.1129C33.1252 30.1129 33.3599 29.9771 33.4748 29.7433C33.6357 29.4157 33.5007 29.0196 33.1731 28.8586Z" fill="#15222E"/>
</g>
<defs>
<clipPath id="clip0">
<rect width="45" height="45" fill="white"/>
</clipPath>
</defs>
</svg>
