<svg width="45" height="45" viewBox="0 0 45 45" fill="none" xmlns="http://www.w3.org/2000/svg">
<path d="M44.9998 30.385V6.34479C44.9998 4.31038 43.3447 2.6553 41.3104 2.6553H16.1681C15.8039 2.6553 15.5085 2.95053 15.5085 3.31492C15.5085 3.67932 15.8039 3.97454 16.1681 3.97454H41.3104C42.6175 3.97454 43.6807 5.03785 43.6807 6.34488V29.7314H1.31933V6.34479C1.31933 5.03776 2.38264 3.97446 3.68957 3.97446H11.5071C11.8713 3.97446 12.1667 3.67923 12.1667 3.31483C12.1667 2.95044 11.8713 2.65521 11.5071 2.65521H3.68966C1.65525 2.65521 0.000263673 4.31029 0.000263673 6.3447V30.3848C0.000263673 30.3868 0 30.3888 0 30.3908V30.5262C0 32.5606 1.65534 34.2155 3.69001 34.2155H18.8473V37.8815H13.9696C13.3635 37.8815 12.8702 38.3745 12.8702 38.9808V41.2453C12.8702 41.8515 13.3633 42.3447 13.9696 42.3447H31.0303C31.6364 42.3447 32.1297 41.8516 32.1297 41.2453V38.9808C32.1297 38.3746 31.6366 37.8815 31.0303 37.8815H26.1526V34.2155H41.3099C43.3446 34.2155 44.9999 32.5606 44.9999 30.5262V30.3908C45.0001 30.3889 44.9998 30.387 44.9998 30.385ZM30.8105 39.2008V41.0256H14.1895V39.2008H19.5069H25.493H30.8105ZM20.1665 37.8817V34.255H24.8336V37.8817H20.1665ZM43.6155 31.0763C43.6028 31.1298 43.5887 31.1829 43.5724 31.2348C43.5686 31.2468 43.5642 31.2585 43.5603 31.2704C43.545 31.3168 43.5282 31.3626 43.5101 31.4076C43.1057 32.413 42.09 32.9297 41.0458 32.8963C40.007 32.863 38.9615 32.8963 37.9224 32.8963C36.0071 32.8963 34.0918 32.8963 32.1764 32.8963C29.7639 32.8963 27.3513 32.8963 24.9388 32.8963C22.406 32.8963 5.99372 33.0384 3.89814 32.9201C3.33388 32.8883 2.75477 32.7754 2.29756 32.4223C1.92015 32.1309 1.59135 31.7268 1.43983 31.2703C1.43587 31.2585 1.43157 31.2468 1.42779 31.2348C1.41144 31.1829 1.39738 31.1298 1.38463 31.0763C1.38261 31.0678 1.38059 31.0592 1.37866 31.0506H43.6216C43.6196 31.0591 43.6176 31.0677 43.6155 31.0763Z" fill="black"/>
<path d="M40.7082 8.04999H4.29189C3.6858 8.04999 3.19264 8.54306 3.19264 9.14933V26.5451C3.19264 27.1512 3.68571 27.6444 4.29189 27.6444H31.4701C31.8343 27.6444 32.1296 27.3492 32.1296 26.9848C32.1296 26.6205 31.8343 26.3252 31.4701 26.3252H4.5118V9.36914H40.4882V26.3252H36.2191C35.8549 26.3252 35.5595 26.6204 35.5595 26.9847C35.5595 27.3491 35.8548 27.6443 36.2191 27.6443H40.7082C41.3143 27.6443 41.8075 27.1512 41.8075 26.545V9.14933C41.8074 8.54306 41.3144 8.04999 40.7082 8.04999Z" fill="black"/>
<path d="M24.5163 17.2368C25.2846 16.636 25.7799 15.7014 25.7799 14.6527C25.7799 12.8443 24.3086 11.373 22.5002 11.373C20.6917 11.373 19.2204 12.8443 19.2204 14.6527C19.2204 15.7014 19.7157 16.636 20.484 17.2368C19.54 17.8823 18.9191 18.9672 18.9191 20.1945V23.5833C18.9191 23.9476 19.2144 24.2428 19.5787 24.2428H25.4218C25.786 24.2428 26.0813 23.9476 26.0813 23.5833V20.1945C26.0812 18.9672 25.4603 17.8823 24.5163 17.2368ZM22.5 12.6921C23.5811 12.6921 24.4607 13.5716 24.4607 14.6527C24.4607 15.7339 23.5811 16.6134 22.5 16.6134C21.4189 16.6134 20.5393 15.7339 20.5393 14.6527C20.5393 13.5716 21.4189 12.6921 22.5 12.6921ZM24.7619 22.9236H20.238V20.1944H20.238C20.238 18.9473 21.2527 17.9326 22.4999 17.9326C23.7471 17.9326 24.7618 18.9473 24.7618 20.1944V22.9236H24.7619Z" fill="black"/>
<path d="M17.7513 9.80334H15.5089C15.1446 9.80334 14.8493 10.0986 14.8493 10.463V12.7792C14.8493 13.1436 15.1446 13.4389 15.5089 13.4389C15.8731 13.4389 16.1684 13.1436 16.1684 12.7792V11.1226H17.7513C18.1156 11.1226 18.4109 10.8274 18.4109 10.4631C18.411 10.0986 18.1156 9.80334 17.7513 9.80334Z" fill="black"/>
<path d="M29.4911 9.80334H27.2487C26.8844 9.80334 26.589 10.0986 26.589 10.463C26.589 10.8273 26.8844 11.1225 27.2487 11.1225H28.8316V12.7792C28.8316 13.1435 29.1269 13.4388 29.4912 13.4388C29.8555 13.4388 30.1508 13.1435 30.1508 12.7792V10.4629C30.1507 10.0986 29.8554 9.80334 29.4911 9.80334Z" fill="black"/>
<path d="M17.7514 24.4931H16.1685V22.8363C16.1685 22.472 15.8732 22.1768 15.5089 22.1768C15.1446 22.1768 14.8493 22.472 14.8493 22.8364V25.1528C14.8493 25.5171 15.1446 25.8124 15.5089 25.8124H17.7513C18.1156 25.8124 18.411 25.5171 18.411 25.1528C18.411 24.7883 18.1157 24.4931 17.7514 24.4931Z" fill="black"/>
<path d="M29.4911 22.1767C29.1269 22.1767 28.8315 22.4719 28.8315 22.8363V24.4931H27.2486C26.8844 24.4931 26.589 24.7883 26.589 25.1527C26.589 25.517 26.8843 25.8122 27.2486 25.8122H29.491C29.8552 25.8122 30.1506 25.517 30.1506 25.1527V22.8362C30.1507 22.4719 29.8554 22.1767 29.4911 22.1767Z" fill="black"/>
<path d="M5.67354 5.93649C5.6629 5.88622 5.64849 5.83938 5.63082 5.79736C5.61105 5.75052 5.58793 5.70728 5.56262 5.66975C5.53608 5.6294 5.50391 5.58994 5.46954 5.55575C5.43579 5.52191 5.39879 5.4915 5.35537 5.46162C5.316 5.43578 5.27276 5.41275 5.2253 5.39271C5.17634 5.37312 5.13072 5.35958 5.08722 5.35132C4.99054 5.33146 4.88929 5.33172 4.79551 5.35105C4.75174 5.35932 4.70595 5.37285 4.65365 5.39333C4.60944 5.41205 4.56647 5.43499 4.52489 5.46241C4.48288 5.49106 4.44588 5.52156 4.41301 5.55461C4.37934 5.58731 4.3477 5.62606 4.31949 5.66878C4.29365 5.70719 4.27045 5.75043 4.25076 5.79728C4.23301 5.83938 4.21859 5.88631 4.20787 5.93702C4.19794 5.98571 4.19284 6.03511 4.19284 6.08389C4.19284 6.13258 4.19794 6.18197 4.20796 6.23137C4.21859 6.28164 4.23301 6.32849 4.25076 6.37059C4.27062 6.41752 4.29374 6.46076 4.31896 6.4982C4.34779 6.54189 4.37943 6.58065 4.41204 6.61229C4.44702 6.64718 4.48552 6.67856 4.5248 6.7044C4.56453 6.73164 4.60795 6.75511 4.65594 6.77532C4.70648 6.7951 4.75227 6.80863 4.79384 6.81637C4.84095 6.82621 4.89157 6.83149 4.94027 6.83149C4.99019 6.83149 5.03985 6.82639 5.08572 6.81681C5.1302 6.80837 5.1759 6.79484 5.22679 6.77453C5.27408 6.75458 5.31784 6.73112 5.35537 6.70536C5.39616 6.67856 5.43456 6.64727 5.46937 6.61237C5.50356 6.57819 5.53573 6.53872 5.56201 6.49908C5.58776 6.46085 5.61087 6.41761 5.63074 6.37059C5.6484 6.32866 5.66282 6.28182 5.67372 6.23084C5.68312 6.18452 5.68778 6.13645 5.68778 6.08398C5.68778 6.03142 5.68321 5.98334 5.67354 5.93649Z" fill="black"/>
<path d="M8.19443 5.93838C8.18564 5.89224 8.1707 5.84346 8.15189 5.79899C8.13343 5.75285 8.1104 5.70908 8.08316 5.66865C8.05266 5.62391 8.0219 5.58664 7.99096 5.55676C7.95941 5.52424 7.92214 5.49348 7.8767 5.46237C7.83838 5.43653 7.79514 5.41341 7.74671 5.39293C7.69899 5.37386 7.6517 5.35989 7.60749 5.35145C7.36764 5.3032 7.10502 5.38327 6.93434 5.55483C6.90173 5.58647 6.87097 5.62365 6.83994 5.669C6.8141 5.70741 6.7909 5.75065 6.77059 5.79908C6.75143 5.8468 6.73746 5.89373 6.7292 5.93724C6.71927 5.98576 6.71426 6.03515 6.71426 6.08411C6.71426 6.13289 6.71927 6.18237 6.72893 6.22983C6.73755 6.27465 6.75152 6.3215 6.77121 6.37081C6.79107 6.41774 6.81419 6.46098 6.84029 6.49974C6.87114 6.54474 6.90182 6.58201 6.93319 6.61215C7.07162 6.75172 7.26428 6.83162 7.46177 6.83162C7.65926 6.83162 7.85183 6.75164 7.98912 6.61338C8.02164 6.58183 8.0524 6.54465 8.08351 6.49921C8.1104 6.45931 8.13343 6.41554 8.15136 6.37072C8.17079 6.32484 8.18564 6.27606 8.19425 6.23097C8.20418 6.18219 8.20919 6.1328 8.20919 6.08411C8.20919 6.03524 8.2041 5.98593 8.19443 5.93838Z" fill="black"/>
<path d="M10.7154 5.93644C10.7047 5.88625 10.6904 5.83932 10.6726 5.79739C10.6528 5.75055 10.6297 5.70731 10.6044 5.66978C10.5757 5.62618 10.5441 5.58742 10.5113 5.55569C10.4774 5.52177 10.4405 5.49136 10.3971 5.46174C10.3568 5.43511 10.3138 5.41226 10.2673 5.39257C10.2171 5.37297 10.1714 5.35943 10.1292 5.35144C10.0335 5.33166 9.93124 5.33192 9.83728 5.35117C9.79255 5.35961 9.74693 5.37323 9.69622 5.39345C9.65043 5.41287 9.60718 5.43572 9.56658 5.46253C9.52457 5.49118 9.48756 5.52168 9.45373 5.55569C9.41927 5.59015 9.38711 5.62961 9.36118 5.6689C9.33534 5.70731 9.31213 5.75055 9.29245 5.79739C9.27469 5.83949 9.26028 5.88643 9.2492 5.93872C9.24006 5.98821 9.2354 6.03716 9.2354 6.08392C9.2354 6.13059 9.24006 6.17954 9.24964 6.2314C9.26028 6.28167 9.27469 6.32852 9.29245 6.37062C9.31231 6.41755 9.33542 6.4608 9.36065 6.49824C9.38719 6.53849 9.41936 6.57787 9.45373 6.61232C9.48871 6.64721 9.5272 6.67859 9.56649 6.70443C9.60525 6.73097 9.64902 6.75453 9.69789 6.77509C9.74728 6.79487 9.79299 6.80849 9.83588 6.81649C9.88448 6.82642 9.93396 6.83152 9.98283 6.83152C10.0322 6.83152 10.0815 6.82642 10.1274 6.81684C10.1708 6.80867 10.2166 6.79513 10.2694 6.77457C10.3151 6.75523 10.3587 6.73168 10.397 6.70548C10.4376 6.67876 10.4761 6.64748 10.5102 6.61329C10.5437 6.58077 10.5752 6.54209 10.6037 6.49912C10.6294 6.46088 10.6526 6.41764 10.6724 6.37062C10.6901 6.3287 10.7045 6.28185 10.7154 6.23078C10.7253 6.18201 10.7303 6.13261 10.7303 6.08401C10.7305 6.03523 10.7254 5.98592 10.7154 5.93644Z" fill="black"/>
</svg>
