<svg width="45" height="45" viewBox="0 0 45 45" fill="none" xmlns="http://www.w3.org/2000/svg">
<path d="M44.9935 24.8427C44.9921 24.8328 44.9897 24.8232 44.9879 24.8134C44.9843 24.7937 44.9803 24.7742 44.9749 24.7551C44.9719 24.744 44.9681 24.7333 44.9644 24.7224C44.9585 24.705 44.9521 24.6878 44.9448 24.671C44.9401 24.6602 44.9353 24.6497 44.93 24.6392C44.9218 24.6227 44.9127 24.6067 44.9031 24.591C44.8973 24.5814 44.8917 24.5718 44.8855 24.5626C44.8742 24.546 44.8618 24.5302 44.849 24.5147C44.843 24.5074 44.8375 24.4997 44.8311 24.4926C44.812 24.4712 44.7915 24.4508 44.7694 24.4319C44.7688 24.4314 44.7683 24.4307 44.7677 24.4302C44.7467 24.4123 44.7244 24.3957 44.701 24.3803C44.699 24.379 44.6968 24.3781 44.6949 24.3769C44.6876 24.3722 44.6798 24.3684 44.6724 24.364C44.6534 24.353 44.6342 24.3424 44.6144 24.3334C44.6111 24.3319 44.6081 24.3298 44.6047 24.3283L34.0803 19.7164V6.7339C34.0803 6.7034 34.0778 6.67326 34.0736 6.64346C34.0722 6.63353 34.0699 6.62395 34.0681 6.61419C34.0645 6.59451 34.0605 6.57499 34.0551 6.55583C34.052 6.54476 34.0482 6.53404 34.0446 6.52314C34.0387 6.50565 34.0322 6.48851 34.025 6.47163C34.0203 6.46091 34.0155 6.45036 34.0103 6.43999C34.002 6.42347 33.993 6.40747 33.9834 6.39165C33.9776 6.38207 33.972 6.37249 33.9657 6.36326C33.9545 6.34665 33.9421 6.33092 33.9292 6.31536C33.9233 6.30807 33.9177 6.30042 33.9114 6.2933C33.8921 6.27168 33.8714 6.25112 33.8492 6.23213C33.8487 6.23178 33.8484 6.23134 33.8479 6.23099C33.8269 6.21306 33.8046 6.19636 33.7812 6.18107C33.7793 6.17975 33.7771 6.17887 33.7752 6.17764C33.7679 6.17298 33.7601 6.1692 33.7526 6.16481C33.7336 6.15373 33.7144 6.14327 33.6947 6.13413C33.6913 6.13255 33.6883 6.13044 33.685 6.12903L22.7652 1.3439C22.5962 1.26981 22.4039 1.26981 22.2351 1.3439L11.3153 6.12895C11.3119 6.13044 11.3089 6.13246 11.3057 6.13404C11.2858 6.14319 11.2666 6.15364 11.2475 6.16481C11.2401 6.16911 11.2323 6.17289 11.2251 6.17755C11.2231 6.17878 11.2209 6.17975 11.219 6.18098C11.1955 6.19627 11.1733 6.21306 11.1523 6.2309C11.1519 6.23125 11.1515 6.23169 11.1511 6.23204C11.1288 6.25112 11.1082 6.27168 11.0888 6.29322C11.0825 6.30025 11.077 6.30789 11.071 6.31528C11.0583 6.33083 11.0459 6.34657 11.0345 6.36318C11.0283 6.37241 11.0227 6.38199 11.0169 6.39157C11.0073 6.40739 10.9982 6.42338 10.99 6.43991C10.9848 6.45036 10.9799 6.46091 10.9753 6.47155C10.968 6.48842 10.9616 6.50556 10.9557 6.52305C10.952 6.53386 10.9483 6.54467 10.9451 6.55575C10.9398 6.57491 10.9357 6.59442 10.9321 6.61411C10.9303 6.62395 10.9279 6.63353 10.9266 6.64337C10.9225 6.67317 10.9199 6.70331 10.9199 6.73381V10.8755C10.9199 11.2403 11.2156 11.536 11.5804 11.536C11.9453 11.536 12.2409 11.2403 12.2409 10.8755V7.74438L21.8398 11.9508V23.8481L12.2409 19.7133V15.5136C12.2409 15.1488 11.9453 14.8531 11.5804 14.8531C11.2156 14.8531 10.9199 15.1488 10.9199 15.5136V19.7164L0.395421 24.3282C0.392081 24.3297 0.389093 24.3318 0.385753 24.3333C0.36589 24.3423 0.34673 24.3529 0.327657 24.3639C0.320187 24.3683 0.312364 24.3721 0.305157 24.3767C0.303224 24.3779 0.301026 24.3789 0.299093 24.3801C0.275626 24.3954 0.25339 24.4121 0.232384 24.43C0.231768 24.4306 0.231241 24.4312 0.230626 24.4317C0.208565 24.4506 0.188087 24.471 0.168926 24.4924C0.162598 24.4995 0.157061 24.5071 0.151085 24.5145C0.13834 24.5301 0.125948 24.5458 0.11461 24.5624C0.10837 24.5716 0.102745 24.5812 0.0969437 24.5908C0.0873636 24.6065 0.0783108 24.6225 0.0700491 24.639C0.0648635 24.6495 0.0599416 24.6601 0.0552834 24.6708C0.0479884 24.6877 0.0415724 24.7048 0.0356837 24.7222C0.0319923 24.7331 0.0283009 24.7438 0.0251368 24.7549C0.0197755 24.774 0.0157325 24.7936 0.0121289 24.8132C0.0102832 24.8231 0.00791018 24.8327 0.00659182 24.8425C0.00254884 24.8724 0 24.9025 0 24.933V38.3471C0 38.6109 0.156973 38.8493 0.399201 38.9537L11.319 43.6574C11.3418 43.6673 11.3649 43.6754 11.3883 43.6826C11.3935 43.6841 11.3988 43.6852 11.404 43.6866C11.4269 43.6929 11.4498 43.6979 11.4729 43.7018C11.4805 43.703 11.488 43.7043 11.4957 43.7053C11.5238 43.7089 11.5519 43.7115 11.5802 43.7115H11.5802H11.5803C11.6085 43.7115 11.6368 43.709 11.6648 43.7053C11.6724 43.7044 11.68 43.7031 11.6876 43.7018C11.7108 43.698 11.7337 43.6929 11.7565 43.6866C11.7617 43.6852 11.767 43.6841 11.7722 43.6826C11.7956 43.6754 11.8187 43.6673 11.8415 43.6574L22.5001 39.0663L25.1606 40.2123C25.4957 40.3569 25.8842 40.2021 26.0285 39.867C26.1728 39.532 26.0183 39.1434 25.6831 38.9991L23.1606 37.9124V25.9434L32.7594 30.1497V42.0473L29.9526 40.8382C29.6178 40.6939 29.2291 40.8484 29.0848 41.1836C28.9405 41.5185 29.095 41.9071 29.43 42.0514L33.1585 43.6575C33.1813 43.6674 33.2044 43.6755 33.2278 43.6826C33.233 43.6842 33.2382 43.6853 33.2435 43.6867C33.2664 43.693 33.2893 43.698 33.3124 43.7019C33.32 43.7031 33.3275 43.7044 33.3352 43.7054C33.3633 43.709 33.3914 43.7116 33.4196 43.7116H33.4197H33.4198C33.448 43.7116 33.4762 43.7091 33.5043 43.7054C33.5119 43.7044 33.5195 43.7032 33.5271 43.7019C33.5503 43.6981 33.5732 43.693 33.596 43.6867C33.6011 43.6853 33.6065 43.6842 33.6117 43.6826C33.6351 43.6755 33.6582 43.6674 33.6809 43.6575L44.6008 38.9538C44.843 38.8494 45 38.611 45 38.3472V24.933C45.0002 24.9025 44.9976 24.8724 44.9935 24.8427ZM10.9197 42.0473L1.32091 37.9125V25.9435L10.9197 30.1498V42.0473ZM11.5802 28.9969L2.30599 24.933L11.5802 20.8691L20.8545 24.933L11.5802 28.9969ZM21.8396 37.9125L12.2407 42.0473V30.1498L21.8396 25.9435V37.9125ZM22.5001 10.7979L13.2258 6.7339L22.5001 2.66991L31.7743 6.73381L22.5001 10.7979ZM23.1606 11.9507L32.7594 7.7443V19.7133L23.1606 23.8481V11.9507ZM33.4199 28.997L24.1457 24.9331L33.4199 20.8691L42.6942 24.9331L33.4199 28.997ZM43.6792 37.9125L34.0804 42.0473V30.1498L43.6792 25.9435V37.9125Z" fill="black"/>
</svg>
