<svg width="45" height="45" viewBox="0 0 45 45" fill="none" xmlns="http://www.w3.org/2000/svg">
<path d="M34.5168 17.8368V17.8366C34.8104 18.9636 35.8367 19.798 37.0543 19.798C38.5 19.798 39.6761 18.6218 39.6761 17.1761C39.6761 15.7304 38.5 14.5542 37.0543 14.5542C35.8367 14.5542 34.8104 15.3887 34.5168 16.5156H25.0585C25.0549 16.4997 25.0513 16.4838 25.0475 16.468L33.2379 11.7392C33.7363 12.2444 34.4153 12.5203 35.1088 12.5203C35.5533 12.5203 36.0035 12.4074 36.4153 12.1695C37.6672 11.4466 38.0978 9.84 37.375 8.58801C36.6523 7.33601 35.0456 6.9057 33.7935 7.62833C32.7391 8.23715 32.2675 9.47288 32.5767 10.5957L24.4211 15.3044C24.4052 15.2873 24.389 15.2703 24.3726 15.2536L25.8237 12.7404C26.0061 12.4245 25.8979 12.0206 25.582 11.8382C25.2661 11.6557 24.8621 11.7639 24.6798 12.0799L23.2411 14.5717C23.2144 14.5637 23.1877 14.5557 23.1605 14.5487V5.15933C24.2876 4.86577 25.1219 3.83948 25.1219 2.62185C25.1218 1.17615 23.9458 0 22.5 0C21.0543 0 19.8781 1.17615 19.8781 2.62185C19.8781 3.83948 20.7124 4.86577 21.8395 5.15933V14.5489C21.8124 14.5559 21.7857 14.5639 21.759 14.5718L17.0635 6.43909C17.8927 5.62136 18.1021 4.3154 17.4934 3.26099C17.1432 2.65446 16.5778 2.22063 15.9014 2.0394C15.2248 1.858 14.5183 1.95116 13.912 2.30131C13.3054 2.65147 12.8717 3.21687 12.6904 3.89327C12.509 4.56967 12.6021 5.27622 12.9523 5.88275C13.3023 6.48928 13.8678 6.9231 14.5443 7.10433C14.7702 7.16489 14.9994 7.19477 15.2271 7.19477C15.4615 7.19477 15.694 7.16252 15.9198 7.09985L20.6275 15.2538C20.6111 15.2705 20.5949 15.2874 20.579 15.3046L12.4234 10.5959C12.7326 9.47315 12.261 8.23741 11.2066 7.62851C9.95461 6.90561 8.34789 7.3361 7.62508 8.58818C6.90228 9.84018 7.33276 11.4468 8.58476 12.1697C8.9967 12.4075 9.44669 12.5205 9.89133 12.5205C10.5848 12.5205 11.2638 12.2446 11.7622 11.7394L19.9526 16.4682C19.9487 16.4841 19.9451 16.5 19.9416 16.5159H10.4832C10.1896 15.3889 9.16334 14.5545 7.94571 14.5545C6.5 14.5545 5.32394 15.7307 5.32394 17.1764C5.32394 18.6221 6.5 19.7982 7.94571 19.7982C9.16334 19.7982 10.1896 18.9638 10.4832 17.8369H19.9881C19.9904 17.8446 19.9924 17.8524 19.9947 17.8601L11.7629 22.6129C10.9451 21.7837 9.63917 21.5742 8.58467 22.183C7.33276 22.9058 6.90219 24.5126 7.62499 25.7645C7.97515 26.3711 8.54055 26.8048 9.21704 26.9861C9.44291 27.0467 9.67213 27.0766 9.89994 27.0766C10.3542 27.0766 10.8027 26.9574 11.2066 26.7241C12.261 26.1153 12.7326 24.8796 12.4234 23.7569L20.1998 19.2671C20.1825 19.3815 20.1732 19.4976 20.1732 19.6146L20.1731 19.8861L15.92 27.2527C15.4745 27.129 15.0026 27.1256 14.5444 27.2483C13.8679 27.4296 13.3026 27.8634 12.9524 28.4699C12.6022 29.0764 12.5092 29.783 12.6905 30.4594C12.8718 31.1359 13.3055 31.7013 13.912 32.0513C14.316 32.2846 14.7644 32.4038 15.2187 32.4038C15.4464 32.4038 15.6756 32.3738 15.9015 32.3133C16.578 32.132 17.1433 31.6983 17.4935 31.0917C17.5991 30.9088 17.6809 30.7165 17.7393 30.5189C18.9057 32.0173 19.8713 33.7611 20.6108 35.7076C21.1842 37.2175 22.2736 38.4955 23.7019 39.3459L23.3315 44.2902C23.3178 44.4734 23.3811 44.6541 23.5059 44.7888C23.6309 44.9235 23.8064 45 23.9901 45H31.3285C31.5122 45 31.6876 44.9235 31.8126 44.7888C31.9376 44.6542 32.0009 44.4734 31.9872 44.2903L31.6179 39.3455C33.1719 38.4169 34.3396 36.958 34.8528 35.285C34.9598 34.9362 34.7639 34.5668 34.4151 34.4599C34.0667 34.3532 33.6972 34.5489 33.5901 34.8976C33.1384 36.37 32.0569 37.6425 30.6229 38.3888C30.3887 38.5107 30.2496 38.7605 30.2693 39.0238L30.617 43.679H24.702L25.0508 39.024C25.0705 38.7606 24.9314 38.5107 24.697 38.3888C23.3673 37.6969 22.3547 36.5782 21.8457 35.2386C21.0191 33.0626 19.9232 31.1192 18.5886 29.4623L18.3792 29.2025C18.1194 28.7403 18.2927 28.3051 18.5466 28.0483C18.7954 27.7967 19.2239 27.6241 19.6802 27.8941C19.9223 28.0374 20.1063 28.2342 20.2427 28.4957C20.3832 28.7654 20.6899 28.9044 20.9853 28.8319C21.2807 28.7597 21.4886 28.4949 21.4888 28.1908L21.4942 19.615C21.4942 19.3259 21.6186 19.0473 21.8353 18.8505C22.0542 18.6518 22.3366 18.5581 22.6307 18.5866C23.1525 18.6372 23.5612 19.1061 23.5612 19.6541V25.4035V28.0422C23.5612 28.407 23.8569 28.7027 24.2217 28.7027C24.5866 28.7027 24.8822 28.4071 24.8822 28.0422V25.4033C24.8822 24.8528 25.3885 24.3699 25.9656 24.3699C26.5354 24.3699 26.9991 24.8335 26.9991 25.4033C26.9991 25.4045 26.9992 25.4056 26.9992 25.4067V28.0422C26.9992 28.407 27.2949 28.7027 27.6597 28.7027C28.0246 28.7027 28.3202 28.4071 28.3202 28.0422V25.4272C28.3205 25.4192 28.3214 25.4114 28.3214 25.4033C28.3214 24.8335 28.7851 24.3699 29.3549 24.3699C29.8662 24.3699 30.2992 24.7447 30.376 25.2471L30.3833 28.0422C30.3833 28.407 30.6789 28.7027 31.0437 28.7027C31.4085 28.7027 31.7042 28.4071 31.7042 28.0422V26.3727C31.7623 25.8863 32.1898 25.5072 32.7076 25.5072H32.8196C33.3768 25.5072 33.8302 25.9462 33.8302 26.4858V30.5724C33.8302 30.9371 34.1259 31.2329 34.4907 31.2329C34.8555 31.2329 35.1512 30.9372 35.1512 30.5724V27.0748C35.3622 27.0707 35.5743 27.042 35.7834 26.986C36.4599 26.8047 37.0252 26.371 37.3755 25.7645C38.0983 24.5125 37.6678 22.9058 36.4158 22.1829C35.3611 21.5741 34.0551 21.7836 33.2375 22.6128L25.0056 17.8601C25.008 17.8524 25.0099 17.8445 25.0122 17.8368H34.5168ZM37.0543 15.8752C37.7716 15.8752 38.3552 16.4588 38.3552 17.1762C38.3552 17.8935 37.7716 18.4771 37.0543 18.4771C36.3368 18.4771 35.7533 17.8935 35.7533 17.1762C35.7533 16.4588 36.3368 15.8752 37.0543 15.8752ZM34.4539 8.77231C34.6544 8.65656 34.8768 8.5975 35.1022 8.5975C35.2152 8.5975 35.3289 8.61235 35.441 8.64241C35.7766 8.73232 36.0573 8.94765 36.2309 9.24859C36.5895 9.8698 36.376 10.667 35.7548 11.0256C35.4538 11.1994 35.1032 11.2455 34.7676 11.1556C34.4319 11.0657 34.1513 10.8504 33.9776 10.5494C33.6191 9.92824 33.8327 9.13108 34.4539 8.77231ZM15.8732 5.69844C15.5723 5.8722 15.2217 5.91834 14.8861 5.82843C14.5505 5.73852 14.2698 5.52319 14.0962 5.22225C13.9225 4.92132 13.8763 4.57073 13.9662 4.23507C14.0561 3.89951 14.2713 3.61896 14.5723 3.4452C14.7727 3.32945 14.9952 3.2703 15.2206 3.2703C15.3337 3.2703 15.4474 3.28516 15.5595 3.31522C15.895 3.40513 16.1756 3.62046 16.3493 3.92139C16.7081 4.54251 16.4945 5.33976 15.8732 5.69844ZM11.0222 10.5494C10.8485 10.8504 10.5679 11.0656 10.2323 11.1556C9.89687 11.2455 9.54619 11.1994 9.24507 11.0256C8.62395 10.667 8.41029 9.86971 8.76889 9.24859C8.94264 8.94765 9.22319 8.73241 9.55884 8.64241C9.6709 8.61235 9.78463 8.5975 9.89766 8.5975C10.1231 8.5975 10.3455 8.65665 10.546 8.77231C11.1672 9.13108 11.3809 9.92824 11.0222 10.5494ZM7.94562 18.4771C7.22835 18.4771 6.64476 17.8935 6.64476 17.1761C6.64476 16.4587 7.22835 15.8752 7.94562 15.8752C8.66298 15.8752 9.24657 16.4587 9.24657 17.1761C9.24657 17.8935 8.66307 18.4771 7.94562 18.4771ZM10.546 25.5799C10.245 25.7536 9.89449 25.7999 9.55884 25.7099C9.22319 25.62 8.94256 25.4046 8.76889 25.1037C8.41029 24.4825 8.62378 23.6853 9.24507 23.3267C9.86628 22.968 10.6635 23.1815 11.0222 23.8028C11.3809 24.424 11.1672 25.2213 10.546 25.5799ZM16.3494 30.431C16.1757 30.7319 15.8951 30.9472 15.5595 31.0372C15.224 31.1271 14.8734 31.0809 14.5724 30.9072C14.2713 30.7334 14.0561 30.4529 13.9663 30.1172C13.8764 29.7817 13.9225 29.431 14.0963 29.13C14.27 28.8291 14.5505 28.6139 14.8861 28.5239C15.222 28.4339 15.5724 28.4803 15.8733 28.6539C16.1742 28.8277 16.3896 29.1082 16.4794 29.4439C16.5693 29.7795 16.5232 30.13 16.3494 30.431ZM17.0805 27.9303C17.0748 27.9246 17.0696 27.9185 17.0639 27.9128L17.1666 27.735C17.1347 27.799 17.1059 27.8642 17.0805 27.9303ZM20.1688 26.6588C19.3055 26.2463 18.299 26.4199 17.6074 27.119C17.4901 27.2376 17.3897 27.3656 17.3026 27.4994L20.1714 22.5305L20.1688 26.6588ZM21.1992 2.62185C21.1992 1.90449 21.7828 1.3209 22.5 1.3209C23.2173 1.3209 23.8009 1.90449 23.8009 2.62185C23.8009 3.33921 23.2173 3.9228 22.5 3.9228C21.7828 3.9228 21.1992 3.33921 21.1992 2.62185ZM23.7043 17.576C23.4223 17.4118 23.1022 17.3049 22.7578 17.2716C22.2484 17.2222 21.7393 17.3422 21.3075 17.6043C21.238 17.4456 21.199 17.2706 21.199 17.0864C21.199 16.369 21.7826 15.7854 22.4999 15.7854C23.2171 15.7854 23.8007 16.369 23.8007 17.0864C23.8008 17.2596 23.7664 17.4248 23.7043 17.576ZM33.9778 23.8028C34.3365 23.1816 35.1338 22.9681 35.7549 23.3267C36.3761 23.6853 36.5897 24.4826 36.2311 25.1037C36.0574 25.4046 35.7768 25.6199 35.4412 25.7099C35.3045 25.7465 35.1655 25.7594 35.0283 25.751C34.824 25.1552 34.3789 24.6681 33.8073 24.4033C33.8141 24.1984 33.8682 23.9925 33.9778 23.8028ZM24.882 23.3106V22.6227L25.2017 23.1765C25.0917 23.214 24.9846 23.2583 24.882 23.3106ZM32.5766 23.7565C32.5367 23.9018 32.5114 24.0489 32.4975 24.1964C32.147 24.2274 31.8182 24.3342 31.5293 24.5017C31.1728 23.6416 30.3256 23.0487 29.3546 23.0487C28.6898 23.0487 28.0885 23.3256 27.66 23.7701C27.4032 23.5037 27.084 23.2981 26.7266 23.1757L24.882 19.9809V19.6537C24.882 19.5333 24.8732 19.4149 24.8566 19.2992L32.5766 23.7565Z" fill="black"/>
<path d="M32.3096 3.89319C32.1283 3.2167 31.6946 2.6513 31.088 2.30124C30.4816 1.95108 29.775 1.85792 29.0986 2.03933C28.4221 2.22055 27.8568 2.65438 27.5066 3.26091C26.8978 4.31542 27.1073 5.62138 27.9365 6.43902L27.0008 8.05971C26.8184 8.37559 26.9266 8.77953 27.2425 8.9619C27.3466 9.02193 27.4601 9.0505 27.5721 9.0505C27.8003 9.0505 28.0223 8.93202 28.1447 8.72012L29.0802 7.09977C29.306 7.16244 29.5385 7.1947 29.7728 7.1947C30.0005 7.1947 30.2298 7.16473 30.4557 7.10426C31.1322 6.92303 31.6975 6.4892 32.0477 5.88267C32.3979 5.27614 32.4909 4.56959 32.3096 3.89319ZM30.9036 5.22218C30.7299 5.52311 30.4493 5.73836 30.1137 5.82836C29.7782 5.91836 29.4276 5.87213 29.1266 5.69837C28.5054 5.33977 28.2918 4.54252 28.6505 3.92132C28.8243 3.62038 29.1048 3.40514 29.4404 3.31514C29.5525 3.28517 29.6662 3.27023 29.7792 3.27023C30.0045 3.27023 30.2271 3.32938 30.4275 3.44513C30.7286 3.61889 30.9438 3.89943 31.0336 4.235C31.1236 4.57065 31.0774 4.92124 30.9036 5.22218Z" fill="black"/>
</svg>
