<svg width="45" height="45" viewBox="0 0 45 45" fill="none" xmlns="http://www.w3.org/2000/svg">
<g clip-path="url(#clip0)">
<path d="M44.8235 37.426C44.5614 36.7141 44.0377 36.1469 43.3488 35.8289C42.1333 35.2678 40.7212 35.6422 39.9268 36.6513L33.9617 33.8975V21.0787C33.9617 21.0482 33.9592 21.0181 33.9551 20.9884C33.9537 20.9786 33.9514 20.969 33.9495 20.9592C33.9459 20.9395 33.9419 20.9201 33.9365 20.901C33.9334 20.8899 33.9297 20.8791 33.926 20.8682C33.9201 20.8509 33.9138 20.8338 33.9065 20.8171C33.9019 20.8063 33.897 20.7957 33.8917 20.7851C33.8836 20.7688 33.8746 20.753 33.8652 20.7375C33.8593 20.7277 33.8535 20.718 33.8471 20.7085C33.8361 20.6924 33.8241 20.6771 33.8118 20.662C33.8055 20.6542 33.7996 20.6461 33.7929 20.6386C33.775 20.6186 33.7558 20.5998 33.7354 20.582C33.7331 20.58 33.731 20.5777 33.7287 20.5757C33.708 20.5582 33.6863 20.5418 33.6634 20.5269C33.6616 20.5257 33.6598 20.525 33.658 20.5238C33.6496 20.5185 33.6407 20.5141 33.6321 20.509C33.6142 20.4988 33.5963 20.4888 33.5778 20.4804C33.5742 20.4787 33.571 20.4764 33.5674 20.4749L30.0485 18.9329C29.7151 18.7867 29.3263 18.9387 29.1801 19.2721C29.034 19.6055 29.1858 19.9943 29.5192 20.1404L31.6602 21.0787L22.5001 25.0926L13.3401 21.0787L22.5002 17.0647L25.1544 18.2278C25.488 18.3741 25.8766 18.222 26.0227 17.8887C26.1689 17.5552 26.017 17.1665 25.6837 17.0202L23.1594 15.9141V9.35324C24.4085 9.05512 25.3404 7.9302 25.3404 6.59101C25.3404 5.02489 24.0662 3.75073 22.5002 3.75073C20.934 3.75073 19.6599 5.02489 19.6599 6.59101C19.6599 7.9302 20.5918 9.05503 21.8409 9.35324V15.9141L11.433 20.4749C11.4293 20.4765 11.426 20.4788 11.4224 20.4806C11.4038 20.4891 11.3858 20.499 11.3678 20.5094C11.3594 20.5143 11.3506 20.5186 11.3424 20.5238C11.3407 20.525 11.3387 20.5257 11.3369 20.527C11.3136 20.5422 11.2915 20.5588 11.2705 20.5765C11.2691 20.5778 11.2679 20.5792 11.2665 20.5804C11.2454 20.5987 11.2256 20.6182 11.2072 20.6388C11.2007 20.6461 11.195 20.6539 11.1888 20.6614C11.1762 20.6767 11.164 20.6923 11.1529 20.7086C11.1465 20.7179 11.1409 20.7275 11.1351 20.7371C11.1255 20.7529 11.1166 20.7688 11.1083 20.7853C11.1031 20.7957 11.0983 20.8062 11.0936 20.8169C11.0863 20.8338 11.0799 20.8509 11.074 20.8683C11.0703 20.8792 11.0666 20.8899 11.0636 20.901C11.0582 20.9201 11.0542 20.9396 11.0506 20.9592C11.0487 20.969 11.0464 20.9785 11.045 20.9884C11.0409 21.0181 11.0383 21.0482 11.0383 21.0787V27.0995C11.0383 27.4635 11.3335 27.7586 11.6975 27.7586C12.0616 27.7586 12.3567 27.4635 12.3567 27.0995V22.0874L21.8409 26.2433V38.0003L12.3568 33.915V31.7873C12.3568 31.4232 12.0617 31.1281 11.6976 31.1281C11.3336 31.1281 11.0384 31.4232 11.0384 31.7873V33.8975L5.07416 36.651C4.75301 36.2412 4.32427 35.9269 3.82339 35.7424C3.11147 35.4802 2.34005 35.511 1.65134 35.8289C0.962629 36.1468 0.4388 36.7141 0.176622 37.4259C-0.0855566 38.1378 -0.0548827 38.9093 0.263106 39.598C0.742111 40.6356 1.77193 41.2477 2.84613 41.2476C3.24392 41.2476 3.64796 41.1636 4.0323 40.9862C4.72101 40.6682 5.24484 40.101 5.50702 39.3891C5.6915 38.8883 5.73035 38.3581 5.62682 37.8479L11.6738 35.0563L22.2393 39.6075C22.2621 39.6172 22.2853 39.6254 22.3087 39.6325C22.3137 39.634 22.3188 39.6351 22.3238 39.6364C22.3467 39.6428 22.3698 39.6478 22.3931 39.6516C22.4007 39.6528 22.4081 39.654 22.4156 39.655C22.4437 39.6586 22.4719 39.6611 22.5001 39.6611C22.5282 39.6611 22.5564 39.6586 22.5845 39.655C22.5921 39.654 22.5996 39.6528 22.6071 39.6515C22.6303 39.6477 22.6533 39.6427 22.6761 39.6363C22.6813 39.6349 22.6865 39.6338 22.6916 39.6323C22.715 39.6252 22.7381 39.617 22.7608 39.6073L33.3263 35.0561L39.3741 37.8481C39.1213 39.1073 39.752 40.4248 40.9678 40.9861C41.3469 41.1612 41.7511 41.2492 42.1567 41.2492C42.4879 41.2492 42.8199 41.1905 43.1399 41.0726C43.8518 40.8104 44.4191 40.2867 44.7371 39.5979C45.055 38.9093 45.0857 38.1379 44.8235 37.426ZM20.9782 6.5911C20.9782 5.75201 21.6608 5.06927 22.5 5.06927C23.3392 5.06927 24.0217 5.75192 24.0217 6.5911C24.0217 7.43028 23.3391 8.11293 22.5 8.11293C21.6609 8.11293 20.9782 7.43028 20.9782 6.5911ZM3.47956 39.7893C3.1105 39.9597 2.69733 39.9762 2.31571 39.8356C1.93435 39.6952 1.63042 39.4145 1.46 39.0455C1.28967 38.6764 1.27315 38.2632 1.41368 37.8816C1.55413 37.5003 1.83477 37.1964 2.20373 37.0259C2.40966 36.9308 2.62605 36.8858 2.83927 36.8858C3.41478 36.8858 3.96665 37.2137 4.22329 37.7697C4.57503 38.5317 4.24139 39.4377 3.47956 39.7893ZM32.6433 33.9151L23.1593 38.0004V26.2433L29.3973 23.5097L32.6434 22.0873V33.9151H32.6433ZM43.54 39.0456C43.1883 39.8073 42.2825 40.1412 41.5204 39.7893C41.1514 39.619 40.8708 39.315 40.7303 38.9337C40.5898 38.5522 40.6063 38.139 40.7766 37.7698C41.0333 37.2139 41.5849 36.8859 42.1605 36.8859C42.3738 36.8859 42.5902 36.9309 42.7961 37.026C43.1651 37.1964 43.4458 37.5003 43.5862 37.8816C43.7268 38.2631 43.7103 38.6765 43.54 39.0456Z" fill="black"/>
</g>
<defs>
<clipPath id="clip0">
<rect width="45" height="45" fill="white"/>
</clipPath>
</defs>
</svg>

